<svg xmlns="http://www.w3.org/2000/svg" viewBox="0 0 215.31 52.67"><defs><style>.cls-1{isolation:isolate;}.cls-2{fill:#403400;}.cls-3,.cls-4{fill:#fb8500;}.cls-4{font-size:8.21px;font-family:Avenir-Black, Avenir;font-weight:800;letter-spacing:0.2em;}.cls-5{mix-blend-mode:screen;}</style></defs><g class="cls-1"><g id="圖層_1" data-name="圖層 1"><path class="cls-2" d="M57.75,36.9a12.15,12.15,0,0,0-5.89-4.72,7.77,7.77,0,0,1-4.54-5.07c-.93-3.19-3-5.08-5.66-6.73C36.13,17,28.55,19.52,26.4,25c-1.71,4.33-4,7.84-7.8,10.38a4.9,4.9,0,0,0-.7.58,7,7,0,0,0-1.75,7.41l1.76-1.17c-.4,1.25-.67,2.11-1,3.19.77.74,1.54,1.46,2.29,2.2a16.3,16.3,0,0,0,12.43,4.64,42.51,42.51,0,0,0,5.86-.5c4.4-.74,8.79-1.53,12.58-4.16a12,12,0,0,1,3.77-2.06c2.41-.59,3.46-2.38,4.36-4.28A4.32,4.32,0,0,0,57.75,36.9Z"/><path class="cls-2" d="M29.4,4.1a4.46,4.46,0,0,0-7.07-.62c-1.64,1.75-3,3.8-4.54,5.61-1.38,1.6-1.28,3.31-.73,5.13a15.37,15.37,0,0,0,3.49,6.28c1.94,2.07,2.71,2.31,4.78.41,1.44-1.33,2.67-2.9,4.08-4.27a6.7,6.7,0,0,0,2.19-5.21A11.72,11.72,0,0,0,29.4,4.1Z"/><path class="cls-2" d="M9.87,19.37c-2.69.3-4.5,2-6.17,3.91a6,6,0,0,0-.61,7.33c.45.67,1.26,1.09,1.78,1.71,2.82,3.36,5.17,3.77,8.56,1.23,2.49-1.87,4.28-4.25,4.43-7.52C18.24,21.78,14.71,18.82,9.87,19.37Z"/><path class="cls-2" d="M61.87,15.65A2.74,2.74,0,0,0,58.13,14c-2.53,1.13-6.83,5.2-6.28,8.91.18,1.26.25,2.54.4,3.81.3,2.54,1.69,4.26,3.67,4.55,2.82.41,5.14-.7,6.12-3.18.68-1.71,1.06-3.53,1.68-5.68A68.77,68.77,0,0,0,61.87,15.65Z"/><path class="cls-2" d="M43.14,4C40.57,4,39,5.28,38,8.31c-1.26,4-.08,7.37,3.05,10.15,2.93,2.59,6.67,1.82,8.12-1.84a22.6,22.6,0,0,0,.8-3.91,33.21,33.21,0,0,0-.69-4.33A6.08,6.08,0,0,0,43.14,4Z"/><path class="cls-2" d="M215.27,22.3A2.64,2.64,0,0,0,214,20.54a2.24,2.24,0,0,0-1.22-.42c-.94,0-1.53.78-2.05,1.46l-.34.42c-1.57,1.9-3.33,4-6.38,4.82l0-.44a10.67,10.67,0,0,1,.22-1.9c.28-1.14.6-2.27.91-3.4.41-1.46.82-3,1.16-4.48l.07-.29c.22-1.34.8-2.73.07-4a3.51,3.51,0,0,0-1.15-1.15,9.31,9.31,0,0,0-5.7-1.43A11.14,11.14,0,0,0,192,13a8.24,8.24,0,0,0-2,7.87,2.16,2.16,0,0,1,.17.86c-.11,1-4.63,1.53-5.64,1.76-.07-.35-.15-.68-.22-1a17.61,17.61,0,0,1-.45-2.66c-.19-3.14-.89-5.08-3.81-5.08a12,12,0,0,0-2.34.28,38.55,38.55,0,0,0-4.28,1.23l-1.17.38.16-.61a3.53,3.53,0,0,0-.26-2.76,2,2,0,0,0-1.5-.85h-.18a4.72,4.72,0,0,0-2.62,1.51l-.25.22a2.54,2.54,0,0,0-.65,1.16,2.84,2.84,0,0,1-.26.63c-.39.63-.77,1.26-1.15,1.9A54.86,54.86,0,0,1,162.14,23a3.47,3.47,0,0,1-2.58,1.59c-1,0-1.82-.76-2.19-2.09a7.24,7.24,0,0,1,.5-4.08l0-.13c.71-2,1.44-4-1-6.08a.57.57,0,0,0-.33-.11.49.49,0,0,0-.3.1c-.21.16-.45.31-.69.46A5.37,5.37,0,0,0,153.91,14c-.84,1.19-1.64,2.43-2.42,3.63-1.17,1.82-2.38,3.69-3.73,5.4a14.49,14.49,0,0,1-4.84,3.81,2.61,2.61,0,0,1-1.17.28c-1.08,0-2.23-.68-3.51-2.08a3.36,3.36,0,0,1-.64-2.79c.14-.34.28-.67.43-1,1.34-3.17,2.61-6.17,6.58-6.67a4.39,4.39,0,0,0,1.74-.77l.41-.27c1.73-1,2.13-2.48,1.28-4.61a.49.49,0,0,0-.46-.31h-.1l-4.62.9A2.12,2.12,0,0,0,143,8.34l-.11-.46a4.62,4.62,0,0,0-1.29-2.69,1.7,1.7,0,0,0-1-.27,4.59,4.59,0,0,0-2.36.73,6.56,6.56,0,0,0-1.72,2.2l-.38.63a15.69,15.69,0,0,0-.78,1.46,6.8,6.8,0,0,1-1.53,2.33,4.3,4.3,0,0,1-2.42.51,13.51,13.51,0,0,1-6.44-1.61l0-.05c.13-.32.27-.66.39-1a3.63,3.63,0,0,0,.07-2.85A2,2,0,0,0,124,6.37a3,3,0,0,0-.43,0,5.35,5.35,0,0,0-3.11,1.37,7.89,7.89,0,0,0-1.58,2.22c-.13.25-.26.49-.4.72a3,3,0,0,1-.62.06,9.4,9.4,0,0,1-1.17-.1,8.52,8.52,0,0,0-1.23-.11,2.71,2.71,0,0,0-2.6,1.55.43.43,0,0,0-.06.22c-.08,2.19,1.37,2.8,2.65,3.34a5.68,5.68,0,0,1,1.63.9c-.71,1-1.41,2-2.11,3-1.75,2.52-3.56,5.13-5.37,7.67a5.17,5.17,0,0,1-4.17,2.45,6.39,6.39,0,0,1-3.93-1.61l.14-.11A9.36,9.36,0,0,0,103,26.83c.56-.58,1.13-1.15,1.69-1.72a56.1,56.1,0,0,0,4.91-5.41,3.08,3.08,0,0,0,.74-3.13,3.53,3.53,0,0,0-3-1.87,8.37,8.37,0,0,0-1.34-.1c-4.63,0-9.52,3.41-10.9,7.6-1,3-1.06,5.35-.2,7.16,1,2.09,3.51,3.1,5.54,3.91l.4.16a13.3,13.3,0,0,0,5,1c2.71,0,6.44-1,8.87-6a14.72,14.72,0,0,1,2.07-2.89l.7-.84c2.53,4.42,5.19,6.48,8.35,6.48,2.29,0,4.86-1.13,7.84-3.46,2.54,2.1,5.34,4.07,9,4.07a11.09,11.09,0,0,0,1.39-.1c3-.4,4.75-2.39,6.43-4.32A21.52,21.52,0,0,1,152.69,25c1.87,3,4,4.41,6.55,4.41a11.49,11.49,0,0,0,6-2.1l2.67.84.15,0a.51.51,0,0,0,.47-.32c1.82-4.67,5.21-7.25,10.33-7.89l.18,1.17c.17,1.19.34,2.31.6,3.43.61,2.69,2.07,4,4.33,4a8,8,0,0,0,2.09-.31l1.16-.34a13.84,13.84,0,0,1,2.71-.65c2.15-.2,4.29-.31,6.55-.43l2.29-.12c-.1,1.3-.85,2-2.7,2.48a105.29,105.29,0,0,0-12.19,4.24C180.76,34.8,178.2,37.25,176,41a5.76,5.76,0,0,0-.44,5.66,5.57,5.57,0,0,0,4.77,2.73c.38,0,.75,0,1.13,0a23.52,23.52,0,0,0,5.54-.71C194,47,197.67,41.56,200.6,36c1.16-2.22,2.3-3.64,4.7-4.36a17.59,17.59,0,0,0,9.07-6.48A3.72,3.72,0,0,0,215.27,22.3ZM195.35,34.48c-1.92,5.62-7.23,9.92-12.45,9.92a8.4,8.4,0,0,1-3.06-.57C183.48,38,189.25,36.26,195.35,34.48Zm.89-14.26a.84.84,0,0,1-.77-.47,1.14,1.14,0,0,1-.06-.45,5.5,5.5,0,0,1,1.8-3.16,1.51,1.51,0,0,1,1.25-.64,2.48,2.48,0,0,1,1.21.12,1.15,1.15,0,0,1,.75.9c.08.73-.88,1.79-1.39,2.25a4.74,4.74,0,0,1-2.7,1.45Zm-74.07-.79c0-.48,0-1-.08-1.48h10.64c.06,3.71-2.38,5.9-4.75,8l-.16.14a1.67,1.67,0,0,1-1.15.4,4.73,4.73,0,0,1-4.11-3.33A21,21,0,0,1,122.17,19.43Zm-18.06,1.23-.1.15a6.16,6.16,0,0,1-1.48,1.31c-.48.34-1.12,1.07-1.74,1a.17.17,0,0,1-.12,0,.2.2,0,0,1,0-.08,1.89,1.89,0,0,1,.59-1.71c.6-.67,1.83-2.32,2.9-2a.43.43,0,0,1,.21.14.4.4,0,0,1,.07.19A1.55,1.55,0,0,1,104.11,20.66Z"/><path class="cls-2" d="M99.86,12.5c1.54-2.51,2-6.35-.21-8.83A9.38,9.38,0,0,0,96.5,1.53,15.47,15.47,0,0,0,90.15,0a8.21,8.21,0,0,0-7.3,3.88A21.52,21.52,0,0,0,80.32,9c-.66,2.12-1.21,4.24-1.75,6.41-.08.28-.14.61-.2.94-.23,1.22-.5,2.61-1.53,3a5.43,5.43,0,0,1-1.68.28l-3.81.23a3.64,3.64,0,0,0-2.1.6c-1,.75-1,1.47-.8,1.94.49,1.47,3.25,2.32,4.3,2.35l1-.07c1-.08,2.45-.2,3.47-.2a5.88,5.88,0,0,1,.75,0c.11,4.52.6,9.63,4.49,13.66a.48.48,0,0,0,.36.15.53.53,0,0,0,.23-.06C85.18,37.25,85.71,36,85,33.74c-.15-.48-.37-1.05-.6-1.69-1-2.71-2.51-6.81-1.53-8.95.25-.55,1.31-.93,2.08-1.22l.68-.26c.67-.29,1.34-.56,2-.84A46.63,46.63,0,0,0,93,18.31C95.62,16.84,98.24,15.12,99.86,12.5ZM84.71,13.78c.37-2.6,1.89-7.6,4.94-7.9H90a7.46,7.46,0,0,1,3,.83,2.24,2.24,0,0,1,.68.41c1.05,1.09.41,3-.38,4s-5.47,3.63-7.74,3.63h0a1.3,1.3,0,0,1-.67-.15C84.84,14.51,84.62,14.37,84.71,13.78Z"/><path class="cls-3" d="M157.36,8.7c-1.35-.07-2.19-1.18-2.26-3a3.37,3.37,0,0,1,.79-2.5,2.23,2.23,0,0,1,1.64-.68,3.89,3.89,0,0,1,.47,0,4.36,4.36,0,0,1,2.84,2.55,2.17,2.17,0,0,1-.3,2,3.94,3.94,0,0,1-3.15,1.55h0Z"/><path class="cls-3" d="M157.38,8.2c-1.16-.06-1.72-1.08-1.78-2.47-.06-1.6.71-2.89,2.32-2.63a3.82,3.82,0,0,1,2.45,2.22C160.87,6.69,159.33,8.16,157.38,8.2Z"/><text class="cls-4" transform="translate(68.34 48.92)">ALL FOR OUR PETS</text><g class="cls-5"><path class="cls-3" d="M55.63,34.89a12.15,12.15,0,0,0-5.89-4.72A7.79,7.79,0,0,1,45.2,25.1c-.93-3.19-3-5.08-5.66-6.73C34,15,26.43,17.51,24.28,23c-1.71,4.33-4,7.84-7.8,10.38a4.9,4.9,0,0,0-.7.58A7,7,0,0,0,14,41.32l1.76-1.17c-.4,1.25-.67,2.11-1,3.19.77.74,1.54,1.46,2.29,2.2A16.3,16.3,0,0,0,29.5,50.18a42.51,42.51,0,0,0,5.86-.5c4.4-.74,8.79-1.53,12.58-4.16a12,12,0,0,1,3.77-2.06c2.41-.59,3.47-2.38,4.36-4.28A4.32,4.32,0,0,0,55.63,34.89Z"/><path class="cls-3" d="M27.28,2.09a4.45,4.45,0,0,0-7.07-.62c-1.64,1.75-3,3.8-4.54,5.61-1.38,1.6-1.28,3.31-.73,5.13a15.43,15.43,0,0,0,3.49,6.28c1.94,2.07,2.71,2.31,4.78.41,1.44-1.33,2.67-2.9,4.08-4.27a6.7,6.7,0,0,0,2.19-5.21A11.72,11.72,0,0,0,27.28,2.09Z"/><path class="cls-3" d="M7.75,17.36c-2.69.3-4.49,2-6.17,3.9A6,6,0,0,0,1,28.6c.45.67,1.26,1.09,1.78,1.71,2.82,3.36,5.17,3.77,8.56,1.23,2.49-1.87,4.28-4.25,4.43-7.52C16.12,19.77,12.59,16.81,7.75,17.36Z"/><path class="cls-3" d="M59.75,13.64A2.74,2.74,0,0,0,56,12c-2.53,1.13-6.83,5.2-6.28,8.91.18,1.26.25,2.54.4,3.81.3,2.54,1.69,4.26,3.67,4.55,2.83.41,5.14-.7,6.12-3.18.68-1.71,1.06-3.53,1.68-5.68A68,68,0,0,0,59.75,13.64Z"/><path class="cls-3" d="M41,2c-2.57,0-4.16,1.26-5.1,4.29-1.26,4-.08,7.37,3,10.15,2.93,2.59,6.67,1.82,8.12-1.84a21.7,21.7,0,0,0,.8-3.91,33.21,33.21,0,0,0-.69-4.33A6.08,6.08,0,0,0,41,2Z"/></g></g></g></svg>